<svg width="375" height="812" viewBox="0 0 375 812" fill="none" xmlns="http://www.w3.org/2000/svg">
<rect width="375" height="812" fill="#0369A1"/>
<path d="M209.342 369.625H177.627C173.284 369.625 169.119 371.35 166.048 374.421L152.391 388.078C149.12 391.349 149.12 396.651 152.391 399.922L165.077 412.608C168.348 415.879 173.651 415.879 176.921 412.608L212.436 377.094C215.192 374.337 213.24 369.625 209.342 369.625ZM164.657 442.375H196.373C200.716 442.375 204.881 440.65 207.952 437.579L221.609 423.922C224.879 420.651 224.879 415.349 221.609 412.078L208.922 399.392C205.652 396.121 200.349 396.121 197.078 399.392L161.564 434.906C158.807 437.663 160.759 442.375 164.657 442.375Z" fill="white" stroke="url(#paint0_linear_18317_2650)" stroke-width="0.75"/>
<defs>
<linearGradient id="paint0_linear_18317_2650" x1="187" y1="370" x2="187" y2="442" gradientUnits="userSpaceOnUse">
<stop stop-color="white"/>
<stop offset="1" stop-color="white" stop-opacity="0"/>
</linearGradient>
</defs>
</svg>
